<mxfile host="app.diagrams.net" modified="2023-09-27T15:11:28.349Z" agent="Mozilla/5.0 (Macintosh; Intel Mac OS X 10_15_7) AppleWebKit/605.1.15 (KHTML, like Gecko) Version/16.3 Safari/605.1.15" version="21.8.2" etag="uJNphTRWT9nZbL3l_7DD" type="github">
  <diagram name="Page-1" id="risBUBm1_eF88GcIart9">
    <mxGraphModel>
      <root>
        <mxCell id="0" />
        <mxCell id="1" parent="0" />
      </root>
    </mxGraphModel>
  </diagram>
</mxfile>
